<svg width="194" height="47" viewBox="0 0 194 47" fill="none" xmlns="http://www.w3.org/2000/svg">
<path d="M65.6836 30.293L69.082 15.9375H70.9805L71.4141 18.3281L67.793 33H65.7539L65.6836 30.293ZM63.9375 15.9375L66.75 30.293L66.5156 33H64.2422L60.457 15.9375H63.9375ZM74.4023 30.2344L77.1797 15.9375H80.6602L76.8867 33H74.6133L74.4023 30.2344ZM72.0469 15.9375L75.4688 30.3516L75.375 33H73.3359L69.6914 18.3164L70.1602 15.9375H72.0469ZM88.8047 30.1406V24.4922C88.8047 24.0859 88.7383 23.7383 88.6055 23.4492C88.4727 23.1523 88.2656 22.9219 87.9844 22.7578C87.7109 22.5938 87.3555 22.5117 86.918 22.5117C86.543 22.5117 86.2188 22.5781 85.9453 22.7109C85.6719 22.8359 85.4609 23.0195 85.3125 23.2617C85.1641 23.4961 85.0898 23.7734 85.0898 24.0938H81.7148C81.7148 23.5547 81.8398 23.043 82.0898 22.5586C82.3398 22.0742 82.7031 21.6484 83.1797 21.2812C83.6562 20.9062 84.2227 20.6133 84.8789 20.4023C85.543 20.1914 86.2852 20.0859 87.1055 20.0859C88.0898 20.0859 88.9648 20.25 89.7305 20.5781C90.4961 20.9062 91.0977 21.3984 91.5352 22.0547C91.9805 22.7109 92.2031 23.5312 92.2031 24.5156V29.9414C92.2031 30.6367 92.2461 31.207 92.332 31.6523C92.418 32.0898 92.543 32.4727 92.707 32.8008V33H89.2969C89.1328 32.6562 89.0078 32.2266 88.9219 31.7109C88.8438 31.1875 88.8047 30.6641 88.8047 30.1406ZM89.25 25.2773L89.2734 27.1875H87.3867C86.9414 27.1875 86.5547 27.2383 86.2266 27.3398C85.8984 27.4414 85.6289 27.5859 85.418 27.7734C85.207 27.9531 85.0508 28.1641 84.9492 28.4062C84.8555 28.6484 84.8086 28.9141 84.8086 29.2031C84.8086 29.4922 84.875 29.7539 85.0078 29.9883C85.1406 30.2148 85.332 30.3945 85.582 30.5273C85.832 30.6523 86.125 30.7148 86.4609 30.7148C86.9688 30.7148 87.4102 30.6133 87.7852 30.4102C88.1602 30.207 88.4492 29.957 88.6523 29.6602C88.8633 29.3633 88.9727 29.082 88.9805 28.8164L89.8711 30.2461C89.7461 30.5664 89.5742 30.8984 89.3555 31.2422C89.1445 31.5859 88.875 31.9102 88.5469 32.2148C88.2188 32.5117 87.8242 32.7578 87.3633 32.9531C86.9023 33.1406 86.3555 33.2344 85.7227 33.2344C84.918 33.2344 84.1875 33.0742 83.5312 32.7539C82.8828 32.4258 82.3672 31.9766 81.9844 31.4062C81.6094 30.8281 81.4219 30.1719 81.4219 29.4375C81.4219 28.7734 81.5469 28.1836 81.7969 27.668C82.0469 27.1523 82.4141 26.7188 82.8984 26.3672C83.3906 26.0078 84.0039 25.7383 84.7383 25.5586C85.4727 25.3711 86.3242 25.2773 87.293 25.2773H89.25ZM98.3672 15V33H94.9805V15H98.3672ZM104.531 14.9883V33H101.156V14.9883H104.531ZM112.523 20.3203L107.016 26.6016L104.062 29.5898L102.832 27.1523L105.176 24.1758L108.469 20.3203H112.523ZM109.02 33L105.27 27.1406L107.602 25.1016L112.91 33H109.02ZM125.508 30.3633V33H113.836V30.75L119.355 24.832C119.91 24.2148 120.348 23.6719 120.668 23.2031C120.988 22.7266 121.219 22.3008 121.359 21.9258C121.508 21.543 121.582 21.1797 121.582 20.8359C121.582 20.3203 121.496 19.8789 121.324 19.5117C121.152 19.1367 120.898 18.8477 120.562 18.6445C120.234 18.4414 119.828 18.3398 119.344 18.3398C118.828 18.3398 118.383 18.4648 118.008 18.7148C117.641 18.9648 117.359 19.3125 117.164 19.7578C116.977 20.2031 116.883 20.707 116.883 21.2695H113.496C113.496 20.2539 113.738 19.3242 114.223 18.4805C114.707 17.6289 115.391 16.9531 116.273 16.4531C117.156 15.9453 118.203 15.6914 119.414 15.6914C120.609 15.6914 121.617 15.8867 122.438 16.2773C123.266 16.6602 123.891 17.2148 124.312 17.9414C124.742 18.6602 124.957 19.5195 124.957 20.5195C124.957 21.082 124.867 21.6328 124.688 22.1719C124.508 22.7031 124.25 23.2344 123.914 23.7656C123.586 24.2891 123.188 24.8203 122.719 25.3594C122.25 25.8984 121.73 26.457 121.16 27.0352L118.195 30.3633H125.508ZM134.613 26.918H130.266V24.1758H134.613C135.285 24.1758 135.832 24.0664 136.254 23.8477C136.676 23.6211 136.984 23.3086 137.18 22.9102C137.375 22.5117 137.473 22.0625 137.473 21.5625C137.473 21.0547 137.375 20.582 137.18 20.1445C136.984 19.707 136.676 19.3555 136.254 19.0898C135.832 18.8242 135.285 18.6914 134.613 18.6914H131.484V33H127.969V15.9375H134.613C135.949 15.9375 137.094 16.1797 138.047 16.6641C139.008 17.1406 139.742 17.8008 140.25 18.6445C140.758 19.4883 141.012 20.4531 141.012 21.5391C141.012 22.6406 140.758 23.5938 140.25 24.3984C139.742 25.2031 139.008 25.8242 138.047 26.2617C137.094 26.6992 135.949 26.918 134.613 26.918ZM149.93 30.1406V24.4922C149.93 24.0859 149.863 23.7383 149.73 23.4492C149.598 23.1523 149.391 22.9219 149.109 22.7578C148.836 22.5938 148.48 22.5117 148.043 22.5117C147.668 22.5117 147.344 22.5781 147.07 22.7109C146.797 22.8359 146.586 23.0195 146.438 23.2617C146.289 23.4961 146.215 23.7734 146.215 24.0938H142.84C142.84 23.5547 142.965 23.043 143.215 22.5586C143.465 22.0742 143.828 21.6484 144.305 21.2812C144.781 20.9062 145.348 20.6133 146.004 20.4023C146.668 20.1914 147.41 20.0859 148.23 20.0859C149.215 20.0859 150.09 20.25 150.855 20.5781C151.621 20.9062 152.223 21.3984 152.66 22.0547C153.105 22.7109 153.328 23.5312 153.328 24.5156V29.9414C153.328 30.6367 153.371 31.207 153.457 31.6523C153.543 32.0898 153.668 32.4727 153.832 32.8008V33H150.422C150.258 32.6562 150.133 32.2266 150.047 31.7109C149.969 31.1875 149.93 30.6641 149.93 30.1406ZM150.375 25.2773L150.398 27.1875H148.512C148.066 27.1875 147.68 27.2383 147.352 27.3398C147.023 27.4414 146.754 27.5859 146.543 27.7734C146.332 27.9531 146.176 28.1641 146.074 28.4062C145.98 28.6484 145.934 28.9141 145.934 29.2031C145.934 29.4922 146 29.7539 146.133 29.9883C146.266 30.2148 146.457 30.3945 146.707 30.5273C146.957 30.6523 147.25 30.7148 147.586 30.7148C148.094 30.7148 148.535 30.6133 148.91 30.4102C149.285 30.207 149.574 29.957 149.777 29.6602C149.988 29.3633 150.098 29.082 150.105 28.8164L150.996 30.2461C150.871 30.5664 150.699 30.8984 150.48 31.2422C150.27 31.5859 150 31.9102 149.672 32.2148C149.344 32.5117 148.949 32.7578 148.488 32.9531C148.027 33.1406 147.48 33.2344 146.848 33.2344C146.043 33.2344 145.312 33.0742 144.656 32.7539C144.008 32.4258 143.492 31.9766 143.109 31.4062C142.734 30.8281 142.547 30.1719 142.547 29.4375C142.547 28.7734 142.672 28.1836 142.922 27.668C143.172 27.1523 143.539 26.7188 144.023 26.3672C144.516 26.0078 145.129 25.7383 145.863 25.5586C146.598 25.3711 147.449 25.2773 148.418 25.2773H150.375ZM161.168 30.5977C161.582 30.5977 161.949 30.5195 162.27 30.3633C162.59 30.1992 162.84 29.9727 163.02 29.6836C163.207 29.3867 163.305 29.0391 163.312 28.6406H166.488C166.48 29.5312 166.242 30.3242 165.773 31.0195C165.305 31.707 164.676 32.25 163.887 32.6484C163.098 33.0391 162.215 33.2344 161.238 33.2344C160.254 33.2344 159.395 33.0703 158.66 32.7422C157.934 32.4141 157.328 31.9609 156.844 31.3828C156.359 30.7969 155.996 30.1172 155.754 29.3438C155.512 28.5625 155.391 27.7266 155.391 26.8359V26.4961C155.391 25.5977 155.512 24.7617 155.754 23.9883C155.996 23.207 156.359 22.5273 156.844 21.9492C157.328 21.3633 157.934 20.9062 158.66 20.5781C159.387 20.25 160.238 20.0859 161.215 20.0859C162.254 20.0859 163.164 20.2852 163.945 20.6836C164.734 21.082 165.352 21.6523 165.797 22.3945C166.25 23.1289 166.48 24 166.488 25.0078H163.312C163.305 24.5859 163.215 24.2031 163.043 23.8594C162.879 23.5156 162.637 23.2422 162.316 23.0391C162.004 22.8281 161.617 22.7227 161.156 22.7227C160.664 22.7227 160.262 22.8281 159.949 23.0391C159.637 23.2422 159.395 23.5234 159.223 23.8828C159.051 24.2344 158.93 24.6367 158.859 25.0898C158.797 25.5352 158.766 26.0039 158.766 26.4961V26.8359C158.766 27.3281 158.797 27.8008 158.859 28.2539C158.922 28.707 159.039 29.1094 159.211 29.4609C159.391 29.8125 159.637 30.0898 159.949 30.293C160.262 30.4961 160.668 30.5977 161.168 30.5977ZM171.82 14.9883V33H168.445V14.9883H171.82ZM179.812 20.3203L174.305 26.6016L171.352 29.5898L170.121 27.1523L172.465 24.1758L175.758 20.3203H179.812ZM176.309 33L172.559 27.1406L174.891 25.1016L180.199 33H176.309Z" fill="#CAAB73"/>
<g clip-path="url(#clip0_113_2008)">
<path d="M33.0469 4.22266C32.2758 5.03047 31.9453 5.14063 30.6601 4.92031C28.9711 4.7 28.4203 5.06719 28.2 6.60938C28.1265 7.23359 27.7594 7.6375 26.9883 7.89453C25.0422 8.55547 24.8953 8.77578 25.1156 10.4281C25.3359 11.75 25.2258 12.0805 24.4179 12.8516C23.2062 13.9898 23.2429 14.8344 24.5281 15.7891C25.5195 16.5234 25.5562 16.6703 25.2258 17.9922C24.7851 19.6445 25.2625 20.5625 26.5844 20.5625C27.6125 20.5625 28.2734 21.2234 28.2734 22.2516C28.2734 23.4266 29.1547 23.9773 30.6234 23.7203C31.8351 23.5 31.9086 23.5367 32.3125 24.8586C33.2672 27.9797 33.4508 28.2734 34.5156 28.2734C35.5804 28.2734 35.764 27.9797 36.7187 24.8953C37.1226 23.5367 37.1961 23.5 38.5547 23.7203C40.0601 23.9773 40.3172 23.757 40.9414 21.8477C41.1984 21.0766 41.6023 20.7094 42.2265 20.6359C43.7687 20.4156 44.1359 19.8648 43.9156 18.1758C43.6953 16.8906 43.8054 16.5602 44.6133 15.7891C45.7883 14.6875 45.7883 13.9531 44.6133 12.8516C43.8054 12.0805 43.6953 11.75 43.9156 10.4648C44.1359 8.8125 43.8422 8.33516 42.1531 7.93125C41.4554 7.78438 41.0515 7.38047 40.9047 6.68281C40.5008 4.99375 40.0234 4.7 38.3711 4.92031C37.0859 5.14063 36.7554 5.03047 35.9844 4.22266C35.507 3.70859 34.8461 3.30469 34.5156 3.30469C34.1851 3.30469 33.5242 3.70859 33.0469 4.22266ZM35.3969 5.69141C36.0578 6.68281 37.3429 6.90313 38.5547 6.24219C39.1789 5.91172 39.289 6.02188 39.5094 6.86641C39.6195 7.45391 39.7664 8.11484 39.8765 8.37188C40.0234 8.84922 40.2804 8.95938 41.9695 9.32656C42.814 9.54688 42.9242 9.65703 42.5937 10.2813C41.9328 11.5297 42.1531 12.7414 43.2547 13.5492L44.2461 14.3203L43.2547 15.0914C42.1531 15.8992 41.9328 17.1109 42.5937 18.3594C42.9242 18.9836 42.814 19.0938 41.9695 19.3141C39.8398 19.7547 39.95 19.6813 39.5094 21.7375C39.289 22.6188 39.2156 22.6555 38.2242 22.325C36.6453 21.7008 36.0578 22.1414 35.3969 24.6016C35.0297 25.8133 34.6625 26.8047 34.5523 26.8047C34.4422 26.8047 34.0383 25.8133 33.6711 24.6016C32.9734 22.1414 32.3859 21.7008 30.807 22.325C29.8156 22.6555 29.7422 22.6188 29.5219 21.7375C29.0812 19.6813 29.1914 19.7547 27.0617 19.3141C26.2172 19.0938 26.107 18.9836 26.4375 18.3594C27.0984 17.1477 26.8414 15.8992 25.8133 15.0547L24.7851 14.2469L25.8133 13.5125C26.8781 12.7414 27.0984 11.5297 26.4375 10.2813C26.107 9.65703 26.2172 9.54688 27.0617 9.32656C29.1914 8.88594 29.0812 8.99609 29.5219 6.86641C29.7422 6.02188 29.8523 5.91172 30.4765 6.24219C31.6883 6.86641 32.9734 6.68281 33.6711 5.69141C34.5156 4.55313 34.6625 4.55313 35.3969 5.69141Z" fill="#CAAB73"/>
<path d="M29.7422 10.2445C28.8243 11.9703 29.779 13.9531 31.5047 13.9531C32.386 13.9531 33.4141 12.668 33.4141 11.5297C33.4141 9.80391 30.5501 8.77578 29.7422 10.2445ZM31.9454 11.7867C31.9454 12.1539 31.6883 12.4844 31.3946 12.4844C30.8438 12.4844 30.6235 11.3461 31.0641 10.9055C31.468 10.5383 31.9454 11.0156 31.9454 11.7867Z" fill="#CAAB73"/>
<path d="M34.075 13.6594C32.0188 18.5797 31.9821 18.8367 32.6797 18.9836C33.1203 19.0937 33.7078 17.9922 34.993 14.9812C37.0125 10.0976 37.086 9.8039 36.3516 9.65702C35.911 9.54686 35.3235 10.6484 34.075 13.6594Z" fill="#CAAB73"/>
<path d="M36.2046 15.4953C34.9929 17.1844 35.9476 19.0938 37.9304 19.0938C39.5828 19.0938 40.3171 16.4867 38.9953 15.3117C38.0406 14.4672 36.8656 14.5406 36.2046 15.4953ZM38.114 16.9641C38.0406 17.4414 37.857 17.8086 37.6367 17.8086C37.4531 17.8086 37.2328 17.4414 37.1593 16.9641C37.0859 16.4133 37.2328 16.1563 37.6367 16.1563C38.0406 16.1563 38.1875 16.4133 38.114 16.9641Z" fill="#CAAB73"/>
<path d="M17.7719 23.9039C15.532 26.3274 13.9898 27.1719 11.8602 27.1719C10.0242 27.1719 9.91406 27.1352 9.91406 26.2539C9.91406 24.8219 8.66562 23.7938 7.05 23.9406C5.91172 24.0508 5.58125 24.2711 4.88359 25.5195C4.44297 26.3274 4.03906 27.4656 3.96562 28.0899C3.78203 29.8524 4.77344 29.4117 5.54453 27.3922C5.91172 26.4008 6.35234 25.4461 6.57266 25.2258C7.05 24.7485 8.44531 25.593 8.44531 26.3641C8.44531 26.7313 8.70234 27.3922 9.03281 27.8328C9.84062 29.0078 13.182 28.9711 15.275 27.7594L16.8172 26.8781L17.2578 27.7227C17.9922 29.0813 17.4781 30.1094 14.5773 32.9735L11.8602 35.6906L9.51016 35.1031C4.03906 33.7078 4.40625 33.8914 4.40625 32.4961C4.40625 31.7985 4.25937 31.1742 4.07578 31.0274C3.59844 30.7703 2.9375 32.0188 2.9375 33.1938C2.9375 33.7078 2.27656 35.0664 1.46875 36.2047C0.660937 37.3797 0 38.518 0 38.775C0 39.5461 1.83594 41.4922 3.26797 42.1899C5.76484 43.475 8.55547 43.732 19.0937 43.6219C27.7594 43.5117 29.1914 43.4383 29.1914 42.961C29.1914 42.4836 27.5758 42.3735 17.625 42.2266C9.36328 42.0797 5.72812 41.8961 4.95703 41.5656C3.56172 40.9414 1.46875 39.3625 1.46875 38.9219C1.46875 38.3711 3.78203 35.25 4.18594 35.25C4.40625 35.25 6.49922 35.7274 8.8125 36.3149C11.1625 36.9024 15.7156 37.857 18.9102 38.4078C24.0508 39.3258 25.7398 39.436 32.3125 39.436C40.0602 39.4727 40.4641 39.3992 44.9805 37.6367C45.6047 37.3797 45.6047 37.4531 44.7969 38.3344C42.7039 40.6477 39.5828 41.8227 34.5156 42.1899C32.0922 42.3735 31.3945 42.5203 31.3945 42.961C31.3945 44.3195 38.518 43.5852 42.043 41.8594C44.7602 40.5375 47 38.4445 47 37.2328C47 35.8742 46.0453 33.8914 45.2742 33.6344C44.907 33.5242 43.475 33.1938 42.043 32.8633C38.5914 32.0922 35.25 30.9906 32.0555 29.5219C29.9258 28.5672 29.375 28.1633 29.375 27.5024C29.375 26.8781 29.2281 26.768 28.4937 26.9516C27.282 27.2453 26.4375 26.8781 26.4375 26.0336C26.4375 25.5563 26.1805 25.336 25.5562 25.336C24.1609 25.336 23.5 24.9688 23.5 24.161C23.5 23.6102 23.3164 23.4633 22.8391 23.5735C22.4719 23.6836 21.8477 23.5367 21.4805 23.2797C20.3055 22.4352 18.9469 22.6555 17.7719 23.9039ZM20.7461 25.2258C20.7461 26.2906 21.15 26.6211 21.8109 26.107C22.6555 25.3727 23.8305 26.1805 23.6102 27.3555C23.3898 28.3469 24.0875 28.6406 24.8586 27.8695C25.4828 27.2453 26.768 28.0899 26.5477 29.0078C26.3273 29.7789 27.282 30.0727 27.7227 29.375C28.0164 28.8977 31.4312 30.6235 31.725 31.3945C32.2023 32.6797 31.8719 33.3406 29.4852 35.6906L26.9883 38.1141L24.0508 37.7836C21.1133 37.4531 15.4953 36.4985 14.1734 36.0945C13.6227 35.9477 13.9164 35.4703 16.1195 33.2672C19.1305 30.2195 19.6078 29.0078 18.4328 27.0617L17.6984 25.7766L18.5062 25.0055C19.4977 24.0141 20.7461 24.1242 20.7461 25.2258ZM41.4555 34.1485C46.1187 35.1766 46.3023 35.8008 42.3734 37.086C39.6195 38.0039 35.1766 38.4445 31.468 38.1875L28.9711 38.0039L30.9906 35.9844C32.3125 34.6992 33.1203 33.5977 33.2672 32.8266L33.4875 31.6883L35.9109 32.5695C37.2695 33.0836 39.7664 33.7813 41.4555 34.1485Z" fill="#CAAB73"/>
</g>
<defs>
<clipPath id="clip0_113_2008">
<rect width="47" height="47" fill="white"/>
</clipPath>
</defs>
</svg>
