<svg width="190" height="48" viewBox="0 0 190 48" fill="none" xmlns="http://www.w3.org/2000/svg">
<g clip-path="url(#clip0_23_10556)">
<g clip-path="url(#clip1_23_10556)">
<g clip-path="url(#clip2_23_10556)">
<g clip-path="url(#clip3_23_10556)">
<g clip-path="url(#clip4_23_10556)">
<g clip-path="url(#clip5_23_10556)">
<g clip-path="url(#clip6_23_10556)">
<path d="M41.7375 15.6437H52.9038V18.0444H48.5653V32.3794H45.9812V18.0444H41.7375V15.6437ZM67.6261 32.3794H65.0657C64.9866 32.2101 64.876 31.9639 64.7338 31.6407C64.5915 31.3175 64.4287 30.9436 64.2454 30.5189C64.0652 30.0972 63.8677 29.6355 63.6527 29.1338C63.4409 28.6352 63.2244 28.1166 63.0031 27.578H56.934L54.8952 32.3794H52.3348L59.9923 14.8588C60.0871 15.0743 60.2562 15.4667 60.4996 16.0361C60.7462 16.6055 61.0386 17.2857 61.3768 18.0767C61.7182 18.8708 62.0975 19.748 62.5147 20.7083C62.9352 21.6716 63.3619 22.6458 63.7949 23.6307C64.2312 24.6156 64.6579 25.5851 65.0751 26.5392C65.4956 27.4933 65.8796 28.3705 66.2273 29.1708C66.575 29.971 66.8706 30.6512 67.114 31.2114C67.3605 31.7746 67.5312 32.1639 67.6261 32.3794ZM59.7315 20.976L57.8349 25.4543H62.1259C61.9047 24.9464 61.6945 24.4571 61.4953 23.9862C61.2993 23.5183 61.1176 23.0874 60.9501 22.6935C60.7857 22.3026 60.6403 21.9609 60.5138 21.6685C60.3874 21.3762 60.2926 21.1453 60.2293 20.976C60.2135 20.9453 60.1772 20.8375 60.1203 20.6529C60.0666 20.4682 60.0239 20.2989 59.9923 20.145C59.9607 20.2989 59.9132 20.4682 59.85 20.6529C59.7868 20.8375 59.7473 20.9453 59.7315 20.976ZM83.1497 32.3794H79.9492C79.396 31.6869 78.8681 31.0252 78.3655 30.3942C77.8598 29.7632 77.3603 29.1323 76.8672 28.5013C76.3804 27.8704 75.8873 27.2317 75.3879 26.5854C74.8916 25.939 74.3669 25.2696 73.8137 24.5771C73.6082 24.7925 73.4107 24.988 73.221 25.1634C73.0314 25.3419 72.8243 25.5235 72.5999 25.7082C72.5999 26.8932 72.6046 28.0043 72.6141 29.0415C72.6236 30.0818 72.6283 31.1944 72.6283 32.3794H69.7597V15.6437H72.6283V21.8994C72.6283 22.0379 72.6157 22.1718 72.5904 22.301C72.5683 22.4334 72.5572 22.5688 72.5572 22.7073C72.6362 22.5996 72.7153 22.5026 72.7943 22.4165C72.8733 22.3334 72.9523 22.2303 73.0314 22.1071C74.1535 21.0761 75.2346 20.0019 76.2745 18.8847C77.3208 17.7705 78.405 16.6902 79.5272 15.6437H82.8225C81.6372 16.844 80.4629 18.0521 79.2996 19.2678C78.1395 20.4836 76.9668 21.6916 75.7814 22.892C76.4452 23.723 77.0806 24.5263 77.6875 25.3019C78.2976 26.0806 78.8982 26.8547 79.4893 27.6242C80.0835 28.3936 80.681 29.1708 81.2816 29.9556C81.8821 30.7405 82.5049 31.5484 83.1497 32.3794ZM96.7104 32.3794H85.0937V15.6437H96.3784V17.929H87.7015V22.8227H95.4301V25.1542H87.7015V30.0479H96.7104V32.3794ZM115.297 15.6437H117.881V33.1412C117.66 32.8642 117.233 32.4179 116.601 31.8023C115.969 31.1867 115.242 30.4788 114.42 29.6786C113.598 28.8784 112.724 28.0397 111.798 27.1625C110.875 26.2853 110.002 25.4497 109.18 24.6556C108.359 23.8646 107.639 23.1567 107.023 22.5319C106.407 21.9102 105.996 21.4685 105.79 21.2069L105.34 20.6067L105.411 21.3454V32.3794H102.803V14.8588C102.977 15.0743 103.265 15.3821 103.666 15.7822C104.071 16.1823 104.545 16.6471 105.089 17.1765C105.635 17.7089 106.236 18.2829 106.89 18.8985C107.548 19.5141 108.212 20.1373 108.882 20.7683C109.555 21.3992 110.219 22.0179 110.873 22.6242C111.531 23.2336 112.131 23.7999 112.675 24.3232C113.222 24.8464 113.693 25.3081 114.088 25.7082C114.483 26.1083 114.76 26.4084 114.918 26.6085L115.368 27.2548L115.297 26.47V15.6437ZM123.353 15.6437H134.519V18.0444H130.181V32.3794H127.596V18.0444H123.353V15.6437ZM149.241 32.3794H146.681C146.602 32.2101 146.491 31.9639 146.349 31.6407C146.207 31.3175 146.046 30.9436 145.865 30.5189C145.682 30.0972 145.484 29.6355 145.273 29.1338C145.058 28.6352 144.84 28.1166 144.618 27.578H138.549L136.51 32.3794H133.95L141.607 14.8588C141.702 15.0743 141.873 15.4667 142.12 16.0361C142.363 16.6055 142.655 17.2857 142.997 18.0767C143.335 18.8708 143.714 19.748 144.135 20.7083C144.552 21.6716 144.979 22.6458 145.415 23.6307C145.848 24.6156 146.275 25.5851 146.695 26.5392C147.112 27.4933 147.495 28.3705 147.843 29.1708C148.19 29.971 148.487 30.6512 148.734 31.2114C148.977 31.7746 149.146 32.1639 149.241 32.3794ZM141.347 20.976L139.45 25.4543H143.741C143.52 24.9464 143.311 24.4571 143.115 23.9862C142.916 23.5183 142.734 23.0874 142.57 22.6935C142.402 22.3026 142.255 21.9609 142.129 21.6685C142.003 21.3762 141.908 21.1453 141.845 20.976C141.829 20.9453 141.794 20.8375 141.74 20.6529C141.683 20.4682 141.639 20.2989 141.607 20.145C141.576 20.2989 141.528 20.4682 141.465 20.6529C141.402 20.8375 141.363 20.9453 141.347 20.976ZM161.214 16.567L160.289 18.6215C159.641 18.3907 158.996 18.206 158.354 18.0675C157.716 17.929 157.104 17.8597 156.519 17.8597C155.524 17.8597 154.729 18.0598 154.135 18.4599C153.543 18.86 153.248 19.3679 153.248 19.9834C153.248 20.5067 153.461 20.9253 153.888 21.2392C154.315 21.5562 154.844 21.8409 155.476 22.0933C156.109 22.3487 156.796 22.6027 157.539 22.8551C158.282 23.1105 158.969 23.4383 159.601 23.8384C160.234 24.2385 160.763 24.7418 161.19 25.3481C161.617 25.9575 161.83 26.7393 161.83 27.6934C161.83 28.4321 161.691 29.0969 161.413 29.6878C161.138 30.2819 160.727 30.7943 160.18 31.2252C159.636 31.6561 158.957 31.987 158.141 32.2178C157.329 32.4487 156.377 32.5641 155.287 32.5641C154.591 32.5641 153.962 32.5179 153.4 32.4256C152.84 32.3332 152.334 32.2132 151.882 32.0655C151.433 31.9208 151.038 31.7638 150.697 31.5946C150.359 31.4253 150.071 31.2714 149.834 31.1329L150.972 28.9399C151.604 29.2939 152.307 29.5786 153.082 29.794C153.856 30.0095 154.56 30.1172 155.192 30.1172C155.508 30.1172 155.898 30.0787 156.363 30.0018C156.831 29.9248 157.278 29.7894 157.705 29.5955C158.132 29.4047 158.498 29.1477 158.805 28.8245C159.115 28.5013 159.27 28.0935 159.27 27.6011C159.27 27.1548 159.146 26.7731 158.9 26.4561C158.656 26.1422 158.332 25.8652 157.928 25.6251C157.526 25.3881 157.068 25.1727 156.553 24.9788C156.041 24.7879 155.516 24.5894 154.978 24.3832C154.441 24.1739 153.915 23.9538 153.4 23.723C152.887 23.4922 152.429 23.2105 152.025 22.8781C151.623 22.5488 151.299 22.1641 151.053 21.7239C150.809 21.2869 150.687 20.7606 150.687 20.145C150.687 19.5756 150.806 19.0139 151.043 18.4599C151.28 17.9059 151.636 17.4134 152.11 16.9826C152.584 16.5517 153.172 16.2054 153.874 15.9438C154.579 15.6822 155.397 15.5514 156.33 15.5514C156.899 15.5514 157.455 15.5975 157.999 15.6899C158.546 15.7822 159.04 15.8853 159.483 15.9992C159.925 16.1161 160.3 16.2285 160.607 16.3362C160.916 16.4439 161.119 16.5209 161.214 16.567ZM163.608 15.6437H174.774V18.0444H170.436V32.3794H167.852V18.0444H163.608V15.6437ZM189.444 32.3794H177.828V15.6437H189.112V17.929H180.436V22.8227H188.164V25.1542H180.436V30.0479H189.444V32.3794Z" fill="#CAAB73"/>
</g>
</g>
</g>
</g>
<g clip-path="url(#clip7_23_10556)">
<g clip-path="url(#clip8_23_10556)">
<path d="M36.3485 9.64107L29.5337 26.23H23.7802L19.4231 16.7661L19.3673 0.0684547H16.8536L16.9094 11.3815L12.1614 1.04747L9.87116 2.02649L16.9653 17.2557L17.0212 26.1212H7.80436L1.04536 9.74985H0.151611L5.45826 26.23L8.75397 47.9316H28.5841L31.8798 26.23L37.2982 9.64107H36.3485ZM19.4231 22.6946L21.043 26.1756H19.4231V22.6946Z" fill="#CAAB73"/>
</g>
</g>
</g>
</g>
</g>
<defs>
<clipPath id="clip0_23_10556">
<rect width="189.604" height="48" fill="white"/>
</clipPath>
<clipPath id="clip1_23_10556">
<rect width="189.3" height="47.8631" fill="white" transform="translate(0.151611 0.0684547)"/>
</clipPath>
<clipPath id="clip2_23_10556">
<rect width="189.3" height="47.8631" fill="white" transform="translate(0.151611 0.0684547)"/>
</clipPath>
<clipPath id="clip3_23_10556">
<rect width="147.721" height="18.2823" fill="white" transform="translate(41.7307 14.8588)"/>
</clipPath>
<clipPath id="clip4_23_10556">
<rect width="147.721" height="18.2823" fill="white" transform="translate(41.7307 14.8588)"/>
</clipPath>
<clipPath id="clip5_23_10556">
<rect width="147.721" height="18.2823" fill="white" transform="translate(41.7307 14.8588)"/>
</clipPath>
<clipPath id="clip6_23_10556">
<rect width="147.721" height="18.2823" fill="white" transform="translate(41.7307 14.8588)"/>
</clipPath>
<clipPath id="clip7_23_10556">
<rect width="37.1465" height="47.8631" fill="white" transform="translate(0.151611 0.0684547)"/>
</clipPath>
<clipPath id="clip8_23_10556">
<rect width="37.1465" height="47.8631" fill="white" transform="translate(0.151611 0.0684547)"/>
</clipPath>
</defs>
</svg>
